<?xml version="1.0" encoding="UTF-8" standalone="no"?>
<!-- Created with Inkscape (http://www.inkscape.org/) -->

<svg
   xmlns:dc="http://purl.org/dc/elements/1.1/"
   xmlns:cc="http://creativecommons.org/ns#"
   xmlns:rdf="http://www.w3.org/1999/02/22-rdf-syntax-ns#"
   xmlns:svg="http://www.w3.org/2000/svg"
   xmlns="http://www.w3.org/2000/svg"
   xmlns:sodipodi="http://sodipodi.sourceforge.net/DTD/sodipodi-0.dtd"
   xmlns:inkscape="http://www.inkscape.org/namespaces/inkscape"
   width="548.66455mm"
   height="63.5mm"
   viewBox="0 0 1944.0871 225"
   id="svg2"
   version="1.1"
   inkscape:version="0.91 r13725"
   sodipodi:docname="elixirschool_logo.svg">
  <defs
     id="defs4" />
  <sodipodi:namedview
     id="base"
     pagecolor="#ffffff"
     bordercolor="#666666"
     borderopacity="1.0"
     inkscape:pageopacity="0.0"
     inkscape:pageshadow="2"
     inkscape:zoom="0.5"
     inkscape:cx="111.12965"
     inkscape:cy="78.409462"
     inkscape:document-units="px"
     inkscape:current-layer="layer1"
     showgrid="false"
     inkscape:window-width="2560"
     inkscape:window-height="1395"
     inkscape:window-x="0"
     inkscape:window-y="1"
     inkscape:window-maximized="1"
     showguides="true"
     inkscape:guide-bbox="true"
     fit-margin-top="0"
     fit-margin-left="0"
     fit-margin-right="0"
     fit-margin-bottom="0">
    <sodipodi:guide
       position="722.38715,-114.93122"
       orientation="0,1"
       id="guide4587" />
  </sodipodi:namedview>
  <metadata
     id="metadata7">
    <rdf:RDF>
      <cc:Work
         rdf:about="">
        <dc:format>image/svg+xml</dc:format>
        <dc:type
           rdf:resource="http://purl.org/dc/dcmitype/StillImage" />
        <dc:title></dc:title>
      </cc:Work>
    </rdf:RDF>
  </metadata>
  <g
     inkscape:groupmode="layer"
     id="layer3"
     inkscape:label="Layer 3"
     transform="translate(2482.8621,439.79951)" />
  <g
     inkscape:groupmode="layer"
     id="layer2"
     inkscape:label="Layer 2"
     style="display:inline;opacity:1"
     transform="translate(2482.8621,439.79951)" />
  <g
     inkscape:label="Layer 1"
     inkscape:groupmode="layer"
     id="layer1"
     style="display:inline"
     transform="translate(2482.8621,439.79951)">
    <g
       id="g4154">
      <path
         inkscape:connector-curvature="0"
         id="path4419"
         d="m -2264.4514,-439.79943 c -72.7927,21.79002 -145.5865,43.57883 -218.3793,65.36885 -0.015,2.98905 -0.018,5.98017 -0.031,8.96922 l 418.2515,76.04147 72.0747,-75.6127 0.015,-7.66541 -189.1235,-15.51747 c -2.7566,2.32641 -9.6917,3.02746 -17.4864,2.99849 -7.7566,-0.0288 -19.3395,-3.31102 -16.448,-8.11459 3.6434,-6.54183 10.1376,-9.18666 16.5938,-9.10632 0,0 -5.3947,0.007 0,-0.003 5.3946,-0.0105 15.2474,4.02852 17.9851,9.83259 l 192.621,15.68082 c 0,2.24403 0.015,5.07078 0.018,7.52248 l 31.2332,-32.76754 -0.037,-7.03829 -307.2782,-30.5887 z m 276.0829,70.39452 -4.1682,4.37232 -0.037,33.77676 c -1.6577,0.82552 -2.7059,2.51757 -2.7068,4.36941 0,0.22651 0.019,0.45263 0.052,0.6767 -3.3981,1.7429 -5.5981,5.17698 -5.7607,8.99255 l -0.027,0 c -0.103,5.03872 -0.1699,9.10577 -0.2333,12.94193 -2.2474,3.3475 -4.1506,7.6298 -4.1506,12.61232 0,8.60812 8.278,17.68469 8.278,17.68469 l 1.6566,-14.9633 5.1015,15.15872 5.1017,-15.15872 1.5633,15.15872 c 0,0 8.3311,-9.27328 8.3684,-17.88011 0.022,-5.24838 -2.0798,-9.73083 -4.4862,-13.14901 0.018,-3.57938 0.036,-7.40224 0.036,-12.40524 l -0.018,0 c -0.1666,-3.81534 -2.3698,-7.24717 -5.7695,-8.98671 0.034,-0.22594 0.049,-0.45402 0.052,-0.68254 0,-1.90274 -1.1103,-3.63068 -2.8381,-4.42774 0.1061,-12.78457 0.015,-26.25049 -0.015,-38.09075 z m -333.2759,40.80047 c 0,0 -3.1159,9.69536 -12.4082,45.67156 -4.1473,16.0568 3.4325,30.62306 10.2965,36.43107 25.6521,21.70537 114.0465,34.58364 166.0545,31.15164 43.825,-2.892 68.6653,-23.00511 76.8261,-34.84725 6.707,-9.73259 -3.1677,-35.37518 -3.1677,-35.37518 l -237.6012,-43.03184 z"
         style="fill:#a077b6;fill-opacity:1;fill-rule:evenodd;stroke:none;stroke-width:1px;stroke-linecap:butt;stroke-linejoin:miter;stroke-opacity:1" />
      <text
         sodipodi:linespacing="125%"
         id="text4672"
         y="-227.43506"
         x="-1910.8861"
         style="font-style:normal;font-variant:normal;font-weight:normal;font-stretch:normal;font-size:268.81408691px;line-height:125%;font-family:'PT Sans';-inkscape-font-specification:'PT Sans';letter-spacing:0px;word-spacing:0px;fill:#000000;fill-opacity:1;stroke:none;stroke-width:1px;stroke-linecap:butt;stroke-linejoin:miter;stroke-opacity:1"
         xml:space="preserve"><tspan
           style="font-style:normal;font-variant:normal;font-weight:normal;font-stretch:normal;font-family:asap;-inkscape-font-specification:asap;letter-spacing:0px"
           y="-227.43506"
           x="-1910.8861"
           id="tspan4674"
           sodipodi:role="line"><tspan
             id="tspan4684"
             style="font-style:normal;font-variant:normal;font-weight:normal;font-stretch:normal;font-family:asap;-inkscape-font-specification:asap;letter-spacing:0px;fill:#a077b6;fill-opacity:1">elixir</tspan><tspan
             id="tspan4682"
             style="font-style:normal;font-variant:normal;font-weight:normal;font-stretch:normal;font-family:asap;-inkscape-font-specification:asap;letter-spacing:0px;fill:#784f7d;fill-opacity:1">school</tspan></tspan></text>
    </g>
  </g>
</svg>
